<svg width="26" height="24" fill="none" xmlns="http://www.w3.org/2000/svg">
  <path opacity=".3" d="M22 24a6 6 0 0 1-1 0h1Z" fill="#FF7D7D"/>
  <path d="M12 1s3-1 8 5c4 5 7 13 4 16-3 2-7 1-10-4-2-4-3-1-4 0-1 2-2 6-6 5-3-1-7-4 0-16l3-4 5-2Z" fill="url(#a)"/>
  <path d="M24 22c-3 2-7 1-10-4-1-2-2-2-3-1 1-2 7-9 11-5 2 2 3 3 3 5l-1 5Z" fill="url(#b)"/>
  <defs>
    <linearGradient id="a" x1="42.7" y1="39.4" x2="5.9" y2="-8.8" gradientUnits="userSpaceOnUse">
      <stop stop-color="#FF903F"/>
      <stop offset="1" stop-color="#FC3776"/>
    </linearGradient>
    <linearGradient id="b" x1="8.5" y1="-1.6" x2="21" y2="23.3" gradientUnits="userSpaceOnUse">
      <stop stop-opacity=".7"/>
      <stop offset="1" stop-opacity="0"/>
    </linearGradient>
  </defs>
</svg>
